<svg xmlns="http://www.w3.org/2000/svg" viewBox="0 0 16 16" enable-background="new 0 0 16 16" width="16" height="16"><path d="M8.7 2h-4.2c-1.8 0-3.6 1.4-3.6 3.1 0 1.7 1.3 3 3.2 3h.4c-.1.2-.2.5-.2.8 0 .5.3.8.6 1.2h-.7c-2.3 0-4.1 1.5-4.1 3s2 2.5 4.3 2.5c2.7 0 4.1-1.5 4.1-3 0-1.2-.4-1.9-1.5-2.7-.4-.4-1.2-1-1.2-1.4 0-.5.2-.7.8-1.2.7-.6 1.2-1.3 1.2-2.2 0-1.1-.4-2.1-1.3-2.4h1.3l.9-.7zm-1.4 10.2l.1.4c0 1.2-.8 2.2-3 2.2-1.6 0-2.8-1-2.8-2.2 0-1.2 1.4-2.2 3-2.2.4 0 .7.1 1 .2.9.6 1.5 1 1.7 1.6zm-2.6-4.5c-1.1 0-2.1-1.2-2.3-2.6s.5-2.5 1.6-2.5 2.1 1.2 2.3 2.6-.5 2.5-1.6 2.5zm8.3-2.7v-3h-1v3h-3v1h3v3h1v-3h3v-1h-3z"/></svg>