<?xml version="1.0" encoding="utf-8"?>
<!-- Generator: Adobe Illustrator 18.1.1, SVG Export Plug-In . SVG Version: 6.00 Build 0)  -->
<svg version="1.1" id="Layer_1" xmlns="http://www.w3.org/2000/svg" xmlns:xlink="http://www.w3.org/1999/xlink" x="0px" y="0px"
	 viewBox="0 0 16 16" enable-background="new 0 0 16 16" xml:space="preserve">
<path d="M14.8,9.2l-1.4-1.4c-0.8-0.8-1.8-1.2-2.8-1.2c-0.5,0-1,0.1-1.5,0.3c0.2-0.5,0.3-1,0.3-1.5c0-1.1-0.4-2.1-1.2-2.8L6.8,1.2
	C6.1,0.4,5.1,0,4,0S1.9,0.4,1.2,1.2c-1.6,1.6-1.6,4.1,0,5.7l1.4,1.4C3.3,9,4.3,9.4,5.4,9.4c0.5,0,1-0.1,1.5-0.3
	c-0.2,0.5-0.3,1-0.3,1.5c0,1.1,0.4,2.1,1.2,2.8l1.4,1.4C9.9,15.6,10.9,16,12,16c1.1,0,2.1-0.4,2.8-1.2C16.4,13.3,16.4,10.7,14.8,9.2
	z M4,6.8L2.6,5.4c-0.8-0.8-0.8-2,0-2.8C3,2.2,3.5,2,4,2s1,0.2,1.4,0.6L6.8,4c0.4,0.4,0.6,0.9,0.6,1.4c0,0.2,0,0.3-0.1,0.5L5.4,4
	C5,3.6,4.4,3.6,4,4C3.6,4.4,3.6,5,4,5.4l1.9,1.9C5.2,7.5,4.5,7.3,4,6.8z M13.4,13.4c-0.8,0.7-2.1,0.8-2.8,0L9.2,12
	c-0.4-0.4-0.6-0.9-0.6-1.4c0-0.2,0-0.4,0.1-0.5l1.9,1.9c0.2,0.2,0.5,0.3,0.7,0.3c0.3,0,0.5-0.1,0.7-0.3c0.4-0.4,0.4-1,0-1.4
	l-1.9-1.9c0.2,0,0.3-0.1,0.5-0.1c0.5,0,1,0.2,1.4,0.6l1.4,1.4C14.2,11.4,14.2,12.6,13.4,13.4z"/>
</svg>
